<svg width="128" height="128" version="1.1" xmlns="http://www.w3.org/2000/svg" desc="Created with imagetracer.js version 1.2.6" ><path fill="rgb(252,252,253)" stroke="rgb(252,252,253)" stroke-width="1" opacity="1" d="M 0 0 L 72 0 L 72 3 L 70 3 L 69 6 L 65 8 L 65 12 L 61 11 L 61 13 L 59 13 L 58 17 L 52 20 L 52 23 L 51 21 L 49 24 L 50 25 L 43 27 L 42 32 Q 38 36 30 35 L 50 35 L 51 37 L 52 39 L 50 38 L 50 36 L 30 36 L 33 43 L 30 42 Q 25 41 26 44 L 27 46 L 25 49 L 22 49 L 21 52 L 19 55 L 16 57 L 15 58 L 7 64 L 9 65 L 6 67 L 6 69 Q 0 67 1 71 L 0 71 L 0 0 Z " /><path fill="rgb(252,252,253)" stroke="rgb(252,252,253)" stroke-width="1" opacity="1" d="M 82 35 L 98 36 L 82 36 L 82 35 Z " /><path fill="rgb(252,252,253)" stroke="rgb(252,252,253)" stroke-width="1" opacity="1" d="M 80 37 L 79 39 L 80 37 Z " /><path fill="rgb(252,252,253)" stroke="rgb(252,252,253)" stroke-width="1" opacity="1" d="M 53 40 L 57 48 L 55 47 L 53 40 Z " /><path fill="rgb(252,252,253)" stroke="rgb(252,252,253)" stroke-width="1" opacity="1" d="M 34 44 L 37 50 L 35 49 L 34 44 Z " /><path fill="rgb(252,252,253)" stroke="rgb(252,252,253)" stroke-width="1" opacity="1" d="M 76 44 L 75 46 L 74 48 L 74 47 L 76 44 Z " /><path fill="rgb(252,252,253)" stroke="rgb(252,252,253)" stroke-width="1" opacity="1" d="M 39 53 L 42 59 L 40 58 L 39 53 Z " /><path fill="rgb(252,252,253)" stroke="rgb(252,252,253)" stroke-width="1" opacity="1" d="M 71 53 L 70 55 L 71 53 Z " /><path fill="rgb(252,252,253)" stroke="rgb(252,252,253)" stroke-width="1" opacity="1" d="M 61 55 L 62 57 L 61 55 Z " /><path fill="rgb(252,252,253)" stroke="rgb(252,252,253)" stroke-width="1" opacity="1" d="M 45 64 L 46 66 L 45 64 Z " /><path fill="rgb(248,249,253)" stroke="rgb(248,249,253)" stroke-width="1" opacity="1" d="M 73 0 L 75 0 L 99 1 L 92 3 L 90 7 L 88 9 L 89 10 L 86 12 Q 84 15 82 12 L 81 16 L 77 18 L 77 20 L 70 22 L 66 30 L 68 32 Q 65 28 63 33 L 61 34 L 59 34 L 58 37 L 55 40 L 52 40 L 53 38 L 51 37 L 47 34 L 45 34 L 31 35 L 31 34 Q 40 36 43 31 Q 41 25 47 27 L 50 25 L 50 23 L 51 21 L 52 23 L 52 20 L 58 17 L 60 12 L 61 13 L 64 11 L 65 12 L 67 6 L 69 5 L 71 2 L 72 3 L 73 0 Z M 66 25 L 67 27 L 66 25 Z " /><path fill="rgb(248,249,253)" stroke="rgb(248,249,253)" stroke-width="1" opacity="1" d="M 81 35 L 80 37 L 81 35 Z " /><path fill="rgb(248,249,253)" stroke="rgb(248,249,253)" stroke-width="1" opacity="1" d="M 29 36 L 33 43 L 34 44 L 34 46 L 36 51 L 37 51 L 37 52 L 39 53 L 37 54 L 38 56 L 37 58 L 34 60 L 30 62 L 31 65 L 29 67 L 25 67 L 25 70 L 23 71 L 21 71 L 21 74 L 17 78 L 15 78 L 13 79 L 14 80 L 12 82 L 11 84 L 9 85 L 10 87 L 8 87 L 9 85 L 5 88 L 4 90 L 2 90 L 0 90 L 0 72 L 1 69 L 7 68 L 8 65 L 9 65 L 7 64 L 16 58 L 18 55 L 19 54 L 22 52 Q 20 48 25 49 L 27 45 L 26 42 Q 31 44 30 41 L 29 36 Z " /><path fill="rgb(248,249,253)" stroke="rgb(248,249,253)" stroke-width="1" opacity="1" d="M 89 56 L 88 58 L 89 56 Z " /><path fill="rgb(248,249,253)" stroke="rgb(248,249,253)" stroke-width="1" opacity="1" d="M 66 64 L 67 66 L 66 64 Z " /><path fill="rgb(248,249,253)" stroke="rgb(248,249,253)" stroke-width="1" opacity="1" d="M 69 66 L 70 68 L 67 68 L 69 66 Z " /><path fill="rgb(248,249,253)" stroke="rgb(248,249,253)" stroke-width="1" opacity="1" d="M 51 74 L 52 77 L 50 76 L 51 74 Z " /><path fill="rgb(243,244,253)" stroke="rgb(243,244,253)" stroke-width="1" opacity="1" d="M 111 0 L 113 1 L 124 0 L 124 1 L 118 5 L 117 8 L 115 7 L 112 12 L 110 14 L 109 13 Q 105 12 107 17 L 106 19 L 102 21 L 99 23 L 100 24 L 95 28 L 96 29 L 92 30 L 91 34 Q 81 32 79 37 L 78 38 L 78 39 L 79 40 L 76 40 L 72 48 L 73 49 L 70 51 L 68 55 L 69 56 L 66 57 L 65 60 L 63 60 L 64 58 L 62 58 L 63 56 L 61 54 L 58 48 L 56 49 L 56 47 L 54 43 L 56 44 L 57 47 L 62 47 L 61 43 L 63 43 L 65 42 L 70 39 L 73 35 L 75 34 L 77 30 L 81 27 L 82 23 L 82 25 L 85 26 L 85 25 L 84 22 L 86 24 L 90 20 L 89 17 L 92 16 L 94 12 L 104 3 L 106 3 Q 105 0 110 1 L 111 0 Z M 102 6 L 102 7 L 104 7 L 102 6 Z " /><path fill="rgb(243,244,253)" stroke="rgb(243,244,253)" stroke-width="1" opacity="1" d="M 99 35 L 100 37 L 99 35 Z " /><path fill="rgb(243,244,253)" stroke="rgb(243,244,253)" stroke-width="1" opacity="1" d="M 40 56 L 43 61 L 44 62 L 44 64 L 45 68 L 47 69 L 47 70 L 48 71 L 48 73 L 43 74 L 42 78 L 40 79 L 42 79 L 41 81 L 37 80 L 36 82 L 33 86 L 31 87 L 32 90 L 30 89 L 30 91 L 26 92 L 27 94 L 22 97 L 20 101 L 17 102 L 18 104 L 12 109 L 11 112 L 6 114 L 5 117 L 2 116 L 0 117 L 0 101 L 3 100 L 5 100 L 7 99 L 8 97 L 8 99 L 11 98 L 12 95 L 11 93 L 15 91 L 13 90 L 15 89 L 16 90 L 18 85 L 21 87 L 24 83 L 26 84 L 26 82 Q 21 84 22 80 Q 27 82 26 79 L 33 74 L 34 69 L 38 68 L 37 67 L 41 62 L 39 62 L 41 61 L 40 56 Z " /><path fill="rgb(235,237,252)" stroke="rgb(235,237,252)" stroke-width="1" opacity="1" d="M 128 9 L 128 29 L 123 32 L 121 33 Q 114 35 115 41 L 111 43 L 106 47 L 107 49 L 102 51 L 103 53 L 100 55 L 98 56 L 94 58 L 93 62 L 89 64 L 86 70 L 84 72 L 86 73 L 85 73 L 83 73 L 81 74 L 81 72 L 79 72 L 82 71 L 82 69 L 83 70 L 85 66 L 85 64 L 86 64 L 86 62 L 87 61 L 89 55 L 91 55 L 91 53 L 92 51 L 94 48 L 94 46 L 96 45 L 102 32 L 105 31 L 106 31 L 107 32 L 108 29 L 111 29 L 111 25 L 113 25 Q 111 20 115 21 L 118 22 L 121 17 L 123 16 L 123 13 L 127 10 L 128 9 Z " /><path fill="rgb(235,237,252)" stroke="rgb(235,237,252)" stroke-width="1" opacity="1" d="M 91 34 L 98 35 L 91 35 L 91 34 Z " /><path fill="rgb(235,237,252)" stroke="rgb(235,237,252)" stroke-width="1" opacity="1" d="M 67 61 L 66 63 L 67 61 Z " /><path fill="rgb(235,237,252)" stroke="rgb(235,237,252)" stroke-width="1" opacity="1" d="M 67 64 L 69 68 L 67 69 L 67 67 L 67 64 Z " /><path fill="rgb(235,237,252)" stroke="rgb(235,237,252)" stroke-width="1" opacity="1" d="M 75 76 L 77 80 L 74 80 L 75 78 L 72 78 L 75 76 Z " /><path fill="rgb(235,237,252)" stroke="rgb(235,237,252)" stroke-width="1" opacity="1" d="M 52 78 L 54 81 L 55 82 L 55 84 L 56 88 L 58 89 L 58 90 L 60 91 L 58 92 L 58 94 L 59 96 L 57 96 L 57 94 L 56 96 L 54 98 L 50 100 L 47 104 L 43 107 Q 44 110 41 109 L 37 115 L 38 116 L 31 119 L 26 124 L 25 126 L 25 128 L 6 128 L 6 126 L 8 123 L 13 122 L 13 120 L 14 119 L 15 119 L 16 120 L 21 113 L 25 112 L 24 109 L 27 108 L 29 105 L 31 104 L 33 102 L 34 98 L 37 99 L 38 96 L 40 96 L 40 93 L 43 92 L 46 87 L 49 85 L 49 83 Q 53 85 52 81 L 52 78 Z " /><path fill="rgb(235,237,252)" stroke="rgb(235,237,252)" stroke-width="1" opacity="1" d="M 67 96 L 66 98 L 67 96 Z " /><path fill="rgb(246,247,253)" stroke="rgb(246,247,253)" stroke-width="1" opacity="1" d="M 100 0 L 102 1 L 110 0 L 110 1 L 104 3 L 102 6 L 104 7 L 102 7 L 99 8 L 94 12 L 91 16 L 88 18 L 90 20 L 86 24 L 85 26 L 82 25 L 82 23 L 78 30 L 75 32 L 74 35 L 70 38 L 69 39 L 66 41 L 67 42 L 65 42 L 63 43 L 61 43 L 62 47 L 57 47 L 52 39 L 55 40 L 58 36 L 60 33 L 62 33 L 66 30 L 67 28 L 66 25 L 67 27 L 70 25 Q 69 20 74 22 L 78 19 L 79 16 L 82 15 L 83 11 Q 84 15 86 12 L 89 10 L 88 9 L 87 7 L 89 7 L 90 7 L 90 5 L 92 5 L 94 3 L 100 0 Z " /><path fill="rgb(246,247,253)" stroke="rgb(246,247,253)" stroke-width="1" opacity="1" d="M 42 34 L 45 35 L 42 35 L 42 34 Z " /><path fill="rgb(246,247,253)" stroke="rgb(246,247,253)" stroke-width="1" opacity="1" d="M 47 34 L 49 35 L 47 35 L 47 34 Z " /><path fill="rgb(246,247,253)" stroke="rgb(246,247,253)" stroke-width="1" opacity="1" d="M 38 53 L 41 60 L 42 60 L 39 62 L 41 63 Q 35 66 39 69 L 37 69 L 34 71 L 31 76 L 26 79 L 27 81 L 26 80 Q 21 79 22 82 Q 27 80 26 84 L 25 83 L 21 86 L 20 87 L 17 86 L 14 92 L 11 93 L 12 95 L 10 99 L 8 98 L 7 98 L 6 100 L 3 102 L 4 103 L 3 100 L 0 100 L 0 90 L 4 88 L 5 89 L 8 85 L 11 84 L 12 80 L 14 80 L 14 78 L 16 79 L 17 76 L 21 74 L 21 71 L 23 71 L 25 70 L 25 67 L 29 67 L 31 63 L 32 60 L 34 60 L 37 57 L 38 55 L 38 53 Z M 10 85 L 8 87 L 10 87 L 10 85 Z " /><path fill="rgb(246,247,253)" stroke="rgb(246,247,253)" stroke-width="1" opacity="1" d="M 84 65 L 83 67 L 84 65 Z " /><path fill="rgb(41,127,252)" stroke="rgb(41,127,252)" stroke-width="1" opacity="1" d="M 31 37 L 50 37 L 50 39 L 70 74 L 73 83 L 65 97 L 63 96 L 31 37 Z " /><path fill="rgb(26,35,51)" stroke="rgb(26,35,51)" stroke-width="1" opacity="1" d="M 80 37 L 98 38 L 76 77 L 67 62 L 80 37 Z " /><path fill="rgb(213,219,250)" stroke="rgb(213,219,250)" stroke-width="1" opacity="1" d="M 30 36 L 49 37 L 31 38 L 30 36 Z " /><path fill="rgb(213,219,250)" stroke="rgb(213,219,250)" stroke-width="1" opacity="1" d="M 81 36 L 99 37 L 81 37 L 81 36 Z " /><path fill="rgb(213,219,250)" stroke="rgb(213,219,250)" stroke-width="1" opacity="1" d="M 59 53 L 60 55 L 59 53 Z " /><path fill="rgb(213,219,250)" stroke="rgb(213,219,250)" stroke-width="1" opacity="1" d="M 64 62 L 65 64 L 64 62 Z " /><path fill="rgb(213,219,250)" stroke="rgb(213,219,250)" stroke-width="1" opacity="1" d="M 127 62 L 128 63 L 128 128 L 58 127 L 56 128 Q 55 124 59 125 L 64 119 L 66 120 L 71 118 L 73 116 L 72 115 L 73 111 L 75 114 L 75 113 L 74 111 L 81 107 L 81 105 L 85 106 L 87 102 L 88 103 Q 86 98 90 99 L 90 97 L 91 98 Q 90 93 95 95 L 97 91 L 98 92 L 97 90 L 104 85 L 108 81 L 108 79 L 110 79 L 111 75 L 116 73 L 118 67 L 122 64 L 124 65 L 127 62 Z " /><path fill="rgb(213,219,250)" stroke="rgb(213,219,250)" stroke-width="1" opacity="1" d="M 81 69 L 80 71 L 81 69 Z " /><path fill="rgb(213,219,250)" stroke="rgb(213,219,250)" stroke-width="1" opacity="1" d="M 69 71 L 70 73 L 69 71 Z " /><path fill="rgb(213,219,250)" stroke="rgb(213,219,250)" stroke-width="1" opacity="1" d="M 53 77 L 54 79 L 53 77 Z " /><path fill="rgb(213,219,250)" stroke="rgb(213,219,250)" stroke-width="1" opacity="1" d="M 70 89 L 69 91 L 70 89 Z " /><path fill="rgb(213,219,250)" stroke="rgb(213,219,250)" stroke-width="1" opacity="1" d="M 66 96 L 65 98 L 63 98 L 66 96 Z " /><path fill="rgb(240,241,252)" stroke="rgb(240,241,252)" stroke-width="1" opacity="1" d="M 125 0 L 128 0 L 128 9 L 125 10 L 123 16 L 118 20 Q 119 23 116 22 L 113 21 L 111 29 L 108 31 L 106 32 L 106 30 L 105 32 Q 101 30 102 35 L 100 36 Q 98 32 91 34 L 92 30 L 96 29 Q 93 26 99 24 L 100 24 L 100 22 L 103 21 L 106 18 L 107 13 L 110 14 L 110 12 L 112 11 L 115 7 L 117 8 L 122 1 L 125 0 Z " /><path fill="rgb(240,241,252)" stroke="rgb(240,241,252)" stroke-width="1" opacity="1" d="M 82 34 L 90 35 L 82 35 L 82 34 Z " /><path fill="rgb(240,241,252)" stroke="rgb(240,241,252)" stroke-width="1" opacity="1" d="M 76 42 L 75 44 L 73 48 L 74 49 L 73 47 L 76 42 Z " /><path fill="rgb(240,241,252)" stroke="rgb(240,241,252)" stroke-width="1" opacity="1" d="M 72 49 L 71 51 L 68 57 L 69 58 L 67 58 L 66 62 Q 62 60 66 59 L 72 49 Z " /><path fill="rgb(240,241,252)" stroke="rgb(240,241,252)" stroke-width="1" opacity="1" d="M 49 70 L 49 73 L 52 80 L 53 80 L 52 83 L 48 84 L 49 85 L 46 87 L 43 93 Q 39 91 40 96 Q 38 101 36 98 L 34 101 L 31 102 L 30 105 L 27 107 L 26 109 L 24 111 L 25 112 L 19 115 L 16 120 L 15 118 L 14 120 L 12 121 L 13 122 L 6 125 L 7 127 L 0 128 L 0 118 L 2 116 L 5 117 L 8 112 Q 12 113 11 111 L 14 107 L 18 104 L 17 102 L 20 101 L 24 95 L 27 94 L 26 92 L 30 91 L 30 89 L 32 88 L 32 86 L 34 85 L 36 82 L 40 80 L 42 81 L 41 79 L 41 78 L 42 77 L 43 74 L 48 73 L 49 70 Z " /><path fill="rgb(240,241,252)" stroke="rgb(240,241,252)" stroke-width="1" opacity="1" d="M 72 74 L 73 77 L 71 76 L 72 74 Z " /><path fill="rgb(240,241,252)" stroke="rgb(240,241,252)" stroke-width="1" opacity="1" d="M 73 85 L 72 87 L 73 85 Z " /><path fill="rgb(240,241,252)" stroke="rgb(240,241,252)" stroke-width="1" opacity="1" d="M 61 92 L 62 95 L 60 94 L 61 92 Z " /><path fill="rgb(229,232,252)" stroke="rgb(229,232,252)" stroke-width="1" opacity="1" d="M 126 29 L 128 30 L 128 59 L 127 59 L 127 60 L 128 62 L 123 65 L 120 64 L 118 70 L 115 74 L 111 75 L 110 79 L 108 79 L 108 81 L 104 85 L 97 90 L 98 92 Q 97 96 91 95 L 90 99 Q 86 98 88 103 L 86 103 L 85 106 L 81 105 L 79 109 L 74 111 L 75 114 L 73 113 L 73 111 L 72 115 L 73 116 L 70 118 L 65 120 L 63 120 L 59 125 L 61 126 L 60 126 L 56 125 L 56 128 L 26 128 L 25 126 L 26 122 L 29 122 L 31 119 L 38 116 L 37 114 L 41 109 Q 44 110 43 107 L 48 104 L 52 100 L 54 96 L 56 95 L 57 95 L 59 96 L 58 95 L 57 93 Q 59 90 60 93 L 62 98 L 67 97 L 69 93 L 69 91 L 71 90 L 73 86 L 73 84 L 74 84 L 74 82 L 75 83 L 75 79 L 73 80 L 78 77 L 81 72 L 81 74 L 83 73 L 84 70 L 86 69 L 91 62 L 94 61 L 96 58 L 100 56 L 102 53 L 103 52 L 104 49 Q 108 50 107 48 Q 104 46 109 44 L 112 43 Q 111 40 115 41 L 115 39 Q 117 32 123 33 L 126 29 Z " /><path fill="rgb(229,232,252)" stroke="rgb(229,232,252)" stroke-width="1" opacity="1" d="M 90 53 L 91 55 L 90 53 Z " /><path fill="rgb(229,232,252)" stroke="rgb(229,232,252)" stroke-width="1" opacity="1" d="M 85 62 L 86 64 L 85 62 Z " /><path fill="rgb(229,232,252)" stroke="rgb(229,232,252)" stroke-width="1" opacity="1" d="M 85 65 L 84 67 L 82 71 L 82 70 L 85 65 Z " /><path fill="rgb(229,232,252)" stroke="rgb(229,232,252)" stroke-width="1" opacity="1" d="M 73 72 L 72 74 L 73 72 Z " /><path fill="rgb(229,232,252)" stroke="rgb(229,232,252)" stroke-width="1" opacity="1" d="M 73 75 L 74 77 L 73 75 Z " /><path fill="rgb(229,232,252)" stroke="rgb(229,232,252)" stroke-width="1" opacity="1" d="M 59 88 L 58 90 L 59 88 Z " /></svg>