<svg width="256" height="256" version="1.1" xmlns="http://www.w3.org/2000/svg" desc="Created with imagetracer.js version 1.2.6" ><path fill="rgb(0,0,0)" stroke="rgb(0,0,0)" stroke-width="1" opacity="0" d="M 0 0 L 256 0 L 256 256 L 0 256 L 0 0 Z M 8 2 L 8 3 L 35 3 L 8 2 Z M 7 3 Q 2 7 4 17 L 7 19 L 37 19 L 38 18 L 38 7 L 36 4 L 7 3 Z M 7 20 L 7 21 L 36 21 L 7 20 Z M 62 71 L 62 72 L 99 72 L 62 71 Z M 100 72 L 60 74 L 63 79 L 62 81 L 64 80 L 94 135 L 93 134 L 92 136 L 95 136 L 105 155 L 104 157 L 106 156 L 127 196 L 130 195 L 132 195 L 131 193 L 148 163 L 117 106 L 118 104 L 117 104 L 100 72 Z M 161 73 L 134 122 L 152 155 L 197 74 L 161 73 Z " /><path fill="rgb(0,0,0)" stroke="rgb(0,0,0)" stroke-width="1" opacity="0" d="M 7 6 L 11.5 7 L 14.5 6 L 16.5 6 L 20 7.5 L 18 11.5 L 18 13.5 L 18.5 16 L 26.5 16 L 28 15.5 L 27.5 17 L 7.5 17 L 7.5 16 L 12 15.5 L 11.5 14 L 13 16 L 17 16 L 17 8.5 L 15.5 8 L 13.5 7 L 14 8.5 L 13.5 10 L 13 8 L 10 9.5 L 8.5 14 L 8 11.5 L 11 7.5 L 8.5 7 L 7 7.5 L 7 6 Z " /><path fill="rgb(0,0,0)" stroke="rgb(0,0,0)" stroke-width="1" opacity="0" d="M 33.5 6 L 36 7.5 L 35.5 17 L 34.5 15 L 34 17 L 29 16.5 L 31.5 16 L 34 14.5 L 33 11.5 L 34 11.5 L 34.5 13 L 35 7 L 33 7.5 L 33.5 9 Q 30.5 7.5 33.5 6 Z " /><path fill="rgb(23,31,48)" stroke="rgb(23,31,48)" stroke-width="1" opacity="0.9921568627450981" d="M 161 74 L 194.5 74 L 195 75.5 L 177.5 106 L 175.5 105 Q 172.5 106.5 175.5 108 L 177 107.5 L 152.5 151 L 152 149.5 L 154 146.5 L 151.5 145 L 149.5 145 L 148 145.5 L 149 147.5 L 147 146.5 L 135 121.5 L 161 74 Z M 165 78 L 140 121 L 140 126 L 145 135 L 146 135 L 142 122 L 166 79 L 165 78 Z M 181 91 L 159 128 L 160 131 L 181 93 L 181 91 Z M 147 135 L 150 143 L 152 144 L 154 141 L 154 139 L 150 140 L 147 135 Z " /><path fill="rgb(26,113,249)" stroke="rgb(26,113,249)" stroke-width="1" opacity="0.9450980392156862" d="M 61 73 L 75 73.5 L 62 74.5 L 67 75.5 Q 64.25 77.25 68.5 79 L 71 78 L 128.5 183 L 130 183.5 Q 128.5 186.5 127 183.5 L 119 168 L 117 168.5 L 119 171.5 L 119 173.5 L 119.5 175 L 121 174.5 L 120 176.5 L 122 177.5 L 122 179.5 L 126.5 187 L 129 188.5 L 130.5 191 L 133.5 187 L 132 189.5 L 129.5 194 L 126 192.5 L 61 73 Z M 72 83 L 71 86 L 73 89 L 73 91 L 76 96 L 78 97 L 81 102 L 82 102 L 72 83 Z M 82 103 L 82 106 L 82 108 L 90 120 L 92 120 L 84 105 L 82 103 Z M 96 127 L 100 138 L 102 139 L 96 127 Z " /><path fill="rgb(42,133,250)" stroke="rgb(42,133,250)" stroke-width="1" opacity="0.9686274509803922" d="M 78.5 73 L 98.5 73 L 100 74.5 L 143 152.5 L 147 163.5 L 135.5 182 L 136 180.5 L 137 175.5 L 134 174.5 L 136 169.5 L 129 159.5 L 127 150.5 L 112 117.5 L 104 108.5 Q 102.85 98.65 97 93.5 L 96 86.5 L 90.5 80 L 84 78.5 L 85.5 76 L 75 74.5 L 78.5 73 Z " /><path fill="rgb(22,30,46)" stroke="rgb(22,30,46)" stroke-width="1" opacity="0.984313725490196" d="M 164.5 78 L 166 78.5 L 142 121.5 L 146 134.5 L 150 140 L 155.5 137 L 154 139.5 L 151.5 144 L 150 142.5 L 140 125.5 L 140 120.5 L 149 104.5 L 147 103.5 L 144.5 108 L 143.5 106 L 145 106.5 L 147.5 102 L 150 103.5 L 164.5 78 Z " /><path fill="rgb(22,30,46)" stroke="rgb(22,30,46)" stroke-width="1" opacity="0.984313725490196" d="M 187.5 79 L 188 80.5 L 174 105.5 L 175.5 105 L 178 106.5 L 175 108.5 L 172.5 113 L 173 111.5 L 175 107.5 Q 173.5 104.5 172 107.5 L 157.5 134 L 158 132.5 L 163 119.5 L 185 81 L 187.5 79 Z " /><path fill="rgb(22,30,46)" stroke="rgb(22,30,46)" stroke-width="1" opacity="0.984313725490196" d="M 137.5 117 L 138 119.5 L 137 123.5 L 138 125.5 L 136 126.5 L 137 124.5 L 135 124.5 L 138 118.5 L 137.5 117 Z " /><path fill="rgb(22,30,46)" stroke="rgb(22,30,46)" stroke-width="1" opacity="0.984313725490196" d="M 148.5 145 L 150.5 146 L 152.5 145 L 154.5 148 L 153 147.5 L 154 149.5 L 152 149.5 L 151.5 152 L 149.5 149 L 148 148.5 L 149 146.5 L 148.5 145 Z " /><path fill="rgb(21,29,44)" stroke="rgb(21,29,44)" stroke-width="1" opacity="0.7450980392156863" d="M 161.5 73 L 197 73.5 L 161.5 74 L 161.5 73 Z " /><path fill="rgb(34,121,250)" stroke="rgb(34,121,250)" stroke-width="1" opacity="0.9921568627450981" d="M 75.5 73 L 78 73.5 L 75 74.5 L 86 76.5 L 84.5 79 Q 92.4 78.1 94 83.5 L 103 106.5 L 112 117.5 L 127 150.5 L 129 159.5 L 136 169.5 L 135 173.5 L 137 178.5 L 135 181.5 L 135.5 183 Q 132.5 182.125 134 186.5 L 128.5 195 L 127 192.5 L 129 192.5 L 130 190.5 L 127.5 187 L 125.5 186 L 124 186.5 L 125 183.5 L 123 182.5 L 124 184.5 L 122 183.5 L 121 181.5 L 122 179.5 L 120 179.5 L 121.5 177 L 119.5 178 L 121 175.5 L 120.5 174 L 118 175.5 L 119 173.5 L 118 170.5 L 117 168.5 L 119 168 L 119.5 170 L 120 167.5 L 117.5 167 L 114 164.5 L 112 161.5 L 113 159 L 111 157.5 L 109 152.5 L 111 152.5 L 101.5 135 L 101 136.5 L 104 141.5 L 102 140.5 L 100 137.5 L 95 127.5 L 97 128.5 L 100.5 135 L 101 133.5 L 91.5 117 L 91 118.5 L 91.5 120 L 90 118.5 L 84 114.5 L 83 112.5 L 85 113.5 L 85.5 115 L 86 112.5 L 82 110.5 L 83 108.5 L 80 107.5 L 78 103.5 L 80 104.5 L 81.5 108 L 82 105.5 L 81 103.5 L 82.5 103 L 84 103.5 L 81.5 99 L 81 100.5 L 81.5 102 L 79 100.5 L 77.5 97 L 75.5 98 L 73 94.5 L 75 94.5 L 73 90.5 L 73 88.5 L 71 85.5 L 70.5 83 L 69 82.5 L 69 80.5 L 66 76.5 L 66.5 75 L 62 74.5 L 75.5 73 Z " /><path fill="rgb(20,63,149)" stroke="rgb(20,63,149)" stroke-width="1" opacity="0.050980392156862744" d="M 61.5 71 L 99 71.5 L 61.5 72 L 61.5 71 Z " /><path fill="rgb(20,63,149)" stroke="rgb(20,63,149)" stroke-width="1" opacity="0.050980392156862744" d="M 62.5 77 L 62.5 79 L 65 80.5 L 64 82.5 L 66 82.5 L 65 84.5 L 67 84.5 L 66 86.5 L 68 86.5 L 67 88.5 L 69 88.5 L 69 90.5 L 69.5 92 L 71 91.5 L 70 93.5 L 72 93.5 L 71 95.5 L 73 95.5 Q 71.5 98.5 70 95.5 L 61 78.5 L 62.5 77 Z " /><path fill="rgb(20,63,149)" stroke="rgb(20,63,149)" stroke-width="1" opacity="0.050980392156862744" d="M 73.5 97 L 74 99.5 L 74.5 101 L 76 100.5 L 75 102.5 L 77 102.5 L 76 104.5 L 78 104.5 L 77 106.5 L 79 106.5 L 79 108.5 L 79.5 110 L 81 109.5 L 80 111.5 L 82 111.5 L 80.5 114 L 72 98.5 L 73.5 97 Z " /><path fill="rgb(20,63,149)" stroke="rgb(20,63,149)" stroke-width="1" opacity="0.050980392156862744" d="M 83.5 115 L 84 117.5 L 84.5 119 L 86 118.5 L 85 120.5 L 87 120.5 Q 85.5 123.5 84 120.5 L 82 116.5 L 83.5 115 Z " /><path fill="rgb(20,63,149)" stroke="rgb(20,63,149)" stroke-width="1" opacity="0.050980392156862744" d="M 90.5 127 L 90 128.5 L 90.5 130 L 92 129.5 L 91 131.5 L 93 131.5 L 92 133.5 L 94 133.5 L 93.5 135 L 95 135.5 L 95 137.5 L 95.5 139 L 97 138.5 Q 95.5 141.5 94 138.5 L 89 128.5 L 90.5 127 Z " /><path fill="rgb(20,63,149)" stroke="rgb(20,63,149)" stroke-width="1" opacity="0.050980392156862744" d="M 99.5 144 L 99 145.5 L 100.5 148 L 102 147.5 L 101 149.5 L 103 149.5 Q 101.5 152.5 100 149.5 L 98 145.5 L 99.5 144 Z " /><path fill="rgb(20,63,149)" stroke="rgb(20,63,149)" stroke-width="1" opacity="0.050980392156862744" d="M 104.5 153 L 104.5 155 L 107 156.5 L 106 158.5 L 108 158.5 L 107 160.5 L 109 160.5 L 108 162.5 L 110 162.5 L 109 164.5 L 111 164.5 L 111 166.5 L 111.5 168 L 113 167.5 L 112 169.5 L 114 169.5 L 113 171.5 L 115 171.5 Q 113.5 174.5 112 171.5 L 103 154.5 L 104.5 153 Z " /><path fill="rgb(20,63,149)" stroke="rgb(20,63,149)" stroke-width="1" opacity="0.050980392156862744" d="M 115.5 173 L 116 175.5 L 116.5 177 L 118 176.5 L 117 178.5 L 119 178.5 Q 117.5 181.5 116 178.5 L 114 174.5 L 115.5 173 Z " /><path fill="rgb(139,186,220)" stroke="rgb(139,186,220)" stroke-width="1" opacity="0.12941176470588237" d="M 7.5 2 L 35 2.5 L 7 3.5 L 35.5 4 L 37 3.5 L 37.5 6 L 40 6.5 L 39.5 9 L 38.5 6 L 38 17.5 L 36.5 19 L 6.5 19 L 4.5 17 L 3 17.5 L 5 5.5 L 3 5.5 L 6 4.5 L 7.5 2 Z M 7 6 L 9 14 L 12 8 L 13 10 L 14 10 L 17 8 L 16 16 Q 12 17 13 14 L 10 16 L 8 15 L 7 15 L 8 17 L 34 17 L 34 15 L 32 16 L 30 16 L 28 15 L 18 16 L 19 14 L 18 12 L 19 8 L 22 8 L 17 6 L 15 6 L 12 7 L 7 6 Z M 23 6 L 24 9 L 25 7 L 26 14 L 26 9 L 33 8 L 35 8 L 34 10 L 35 12 L 33 12 L 35 17 L 36 17 Q 38 8 35 6 L 33 7 L 23 6 Z " /><path fill="rgb(139,186,220)" stroke="rgb(139,186,220)" stroke-width="1" opacity="0.12941176470588237" d="M 6.5 20 L 35 20.5 L 6.5 21 L 6.5 20 Z " /></svg>