<svg width="256" height="256" version="1.1" xmlns="http://www.w3.org/2000/svg" desc="Created with imagetracer.js version 1.2.6" ><path fill="rgb(0,0,0)" stroke="rgb(0,0,0)" stroke-width="1" opacity="0" d="M 0 0 L 256 0 L 256 256 L 0 256 L 0 0 Z M 62 71 L 62 72 L 99 72 L 62 71 Z M 100 72 L 60 74 L 63 79 L 62 81 L 64 80 L 127 195 Q 125 199 129 198 L 128 197 L 130 197 L 148 163 L 100 72 Z M 162 73 L 134 121 L 137 131 L 150 153 Q 149 156 152 155 L 197 75 L 197 73 L 162 73 Z M 216 238 L 211 242 L 212 244 L 211 246 L 211 248 L 212 250 L 219 253 L 221 252 L 223 252 L 228 251 Q 231 252 229 247 Q 233 246 231 251 L 241 252 L 243 252 L 250 250 Q 253 250 251 242 L 249 239 L 227 239 L 227 240 L 236 240 L 236 247 L 235 247 Q 237 240 233 241 L 233 246 L 232 241 Q 226 239 228 246 L 227 246 Q 228 241 226 242 L 224 242 L 214 241 L 215 247 L 214 249 L 228 250 L 215 250 Q 211 248 213 242 L 220 240 L 216 238 Z " /><path fill="rgb(25,33,49)" stroke="rgb(25,33,49)" stroke-width="1" opacity="0.9921568627450981" d="M 161 74 L 194.5 74 L 195 75.5 L 151.5 152 L 149 150.5 L 149.5 149 L 152 150.5 L 157 141.5 L 155.5 141 L 153.5 142 L 154 140.5 L 156 136.5 L 154.5 137 L 153 138.5 Q 151.5 141.5 150 138.5 L 148 135.5 L 145 125.5 L 146.5 121 L 147 123 L 150.5 124 L 152 118 L 145 119 L 153 101 L 158 99.5 L 157 94.5 L 161 84.5 L 160 84.5 L 156 93 L 153.5 92 L 150 97.5 L 152.5 96 L 154 96.5 L 149.5 104 L 147 102.5 L 148 104.5 L 145 105.5 L 143 110.5 L 143.5 112 L 142 111.5 L 140 114.5 L 141 116.5 L 139 116.5 L 137 120.5 L 138.5 120 L 140 120.5 L 138 121.5 L 138.5 123 L 137 121.5 L 136 121.5 L 139.5 130 Q 141.25 126.25 143 129.5 L 147 137.5 L 146 141.5 L 148.5 146 L 150 145.5 L 148.5 148 L 135 124.5 L 135 121.5 L 161 74 Z M 187 80 L 169 110 L 165 111 L 165 117 L 157 133 L 158 134 L 164 124 L 166 125 Q 169 123 165 122 L 168 117 L 169 118 L 168 118 L 169 120 L 171 117 L 169 114 L 172 115 L 173 112 L 173 110 L 175 110 L 173 107 L 176 108 L 177 105 L 175 105 L 178 104 L 179 102 L 177 101 L 179 100 L 178 99 L 178 98 L 181 99 L 179 96 L 187 83 L 187 80 Z " /><path fill="rgb(28,115,250)" stroke="rgb(28,115,250)" stroke-width="1" opacity="0.9568627450980393" d="M 61 73 L 73 73.5 L 62 74.5 L 70 75.5 L 69 78 L 74 78.5 L 72 79.5 L 95.5 121 L 97 122.5 L 102 135 L 104 136.5 L 128.5 182 L 131.5 180 L 131 181.5 L 128.5 185 L 127 184.5 L 128.5 187 L 131.5 189 L 133 188.5 L 130.5 192 L 129 191.5 L 130 193.5 L 127 193.5 L 127.5 192 L 125 190.5 L 122 184.5 L 122.5 183 L 120 181.5 L 106 155.5 L 106.5 154 L 104 152.5 L 95 135.5 L 95.5 134 L 93 132.5 L 79 106.5 L 79.5 105 L 77 103.5 L 74 97.5 L 74.5 96 L 72 94.5 L 61 73 Z " /><path fill="rgb(64,148,250)" stroke="rgb(64,148,250)" stroke-width="1" opacity="0.9411764705882353" d="M 87.5 73 L 98.5 73 L 99 74.5 L 145 156.5 L 147 163.5 L 142.5 171 L 142 169.5 L 145 162.5 L 145 160.5 L 144 157 L 141 155.5 L 138.5 150 L 137 147.5 L 122 117 Q 119 118.25 120 114.5 L 97.5 75 L 87.5 74 L 87.5 73 Z " /><path fill="rgb(64,148,250)" stroke="rgb(64,148,250)" stroke-width="1" opacity="0.9411764705882353" d="M 215.5 242 L 220 242.5 L 219 246.5 L 219.5 248 L 215 247.5 L 218 246.5 L 215 246 L 215.5 244 L 218 245 Q 219.25 242 215.5 243 L 215.5 242 Z " /><path fill="rgb(64,148,250)" stroke="rgb(64,148,250)" stroke-width="1" opacity="0.9411764705882353" d="M 236.5 242 L 239.5 243 L 241 243.5 L 239 244.5 L 241 245.5 L 239 246.5 L 241 247.5 L 236.5 248 L 236.5 247 L 238 246.5 L 237.5 244 L 236.5 242 Z " /><path fill="rgb(23,31,46)" stroke="rgb(23,31,46)" stroke-width="1" opacity="0.7019607843137254" d="M 161.5 73 L 197 73.5 L 161.5 74 L 161.5 73 Z " /><path fill="rgb(23,31,47)" stroke="rgb(23,31,47)" stroke-width="1" opacity="0.9882352941176471" d="M 162.5 75 L 166 76.5 L 163 81.5 L 157 95.5 L 158 99.5 L 153 101 L 145 119 L 152 118 L 150.5 124 L 147 123 L 146.5 121 L 145 129.5 L 148 137 L 150 138.5 Q 151.5 141.5 153 138.5 L 154.5 137 L 165 116.5 L 165 111 L 169 109.5 L 187.5 79 L 187 80.5 L 180 94.5 L 184.5 91 L 186 92.5 L 183 93.5 L 182 96.5 L 182.5 98 L 181 97.5 L 182 99.5 L 180.5 99 L 179 99.5 L 180.5 102 L 178 102.5 L 177.5 104 L 175 104.5 L 177 105 L 176 107.5 L 176.5 109 L 175 108.5 L 168.5 120 L 166 118.5 L 165 121.5 L 167.5 125 L 165.5 125 L 163.5 124 L 153 141.5 L 154.5 142 L 156.5 141 L 155 143.5 L 154 146.5 L 154.5 148 L 153 147.5 L 154 149.5 L 152 149.5 L 151.5 151 L 148 148.5 L 149 146.5 L 146 138.5 L 146 136.5 L 141.5 128 L 140.5 131 L 137.5 126 L 136 126.5 L 137 124.5 L 135 120.5 L 137 120.5 L 138 118.5 L 137.5 117 L 139 117.5 L 139.5 116 L 141 116.5 L 140 114.5 L 144 107.5 L 143.5 106 L 145 106.5 L 147.5 102 L 150 103.5 L 154 96.5 L 152.5 96 L 148.5 101 L 149 99.5 L 148 97.5 L 150 97.5 L 153.5 92 L 156 93 L 164 76 L 162.5 75 Z " /><path fill="rgb(37,125,251)" stroke="rgb(37,125,251)" stroke-width="1" opacity="0.9921568627450981" d="M 73.5 73 L 75.5 73 L 97.5 75 L 100 77.5 L 120 117 L 122 118.5 L 135 142.5 L 137 150 L 141 152.5 L 142.5 157 L 144 158.5 L 145 160.5 L 145 162.5 L 141 175 L 139 175.5 L 138 178.5 L 128.5 195 L 127 192.5 L 129 192.5 L 131 188.5 L 127 185.5 L 127.5 184 Q 129.25 186.75 131 182.5 L 130.5 181 L 128.5 182 L 104 135 Q 101 136.25 102 132.5 L 97 121 L 94 119.5 L 72 79.5 L 74 78.5 L 69 78 L 70 75.5 L 62 74.5 L 73.5 73 Z " /><path fill="rgb(26,38,86)" stroke="rgb(26,38,86)" stroke-width="1" opacity="0.058823529411764705" d="M 215.5 238 L 220 239.5 L 213 241.5 Q 211.25 248.25 214.5 250 L 228.5 249 L 229 251 L 222.5 252 L 220.5 252 L 218.5 253 L 212 249.5 L 211 247.5 L 211 245.5 L 212 243.5 L 211 241.5 L 215.5 238 Z " /><path fill="rgb(26,38,86)" stroke="rgb(26,38,86)" stroke-width="1" opacity="0.058823529411764705" d="M 226.5 239 L 248.5 239 L 251 241.5 Q 253 250.333 249.5 250 L 245 251.5 L 245.5 253 L 241.5 251 L 234.5 252 L 231 251 L 231.5 249 L 236.5 250 Q 244.5 252 246.5 248 L 247.5 250 L 250 249 L 249 244.5 L 249 242.5 L 247.5 240 L 242.5 241 L 237.5 240 L 235.5 240 L 226.5 240 L 226.5 239 Z " /><path fill="rgb(76,161,232)" stroke="rgb(76,161,232)" stroke-width="1" opacity="0.17254901960784313" d="M 62.5 71 L 98.5 71 L 100 72.5 L 100.5 75 L 103 75.5 L 107 83.5 L 104 83.5 L 105 81.5 L 103 81.5 L 104 79.5 L 102 79.5 L 103 77.5 L 100 76.5 L 99 72 L 62.5 72 L 62.5 71 Z " /><path fill="rgb(76,161,232)" stroke="rgb(76,161,232)" stroke-width="1" opacity="0.17254901960784313" d="M 62.5 80 L 65 80.5 L 64 82.5 L 66 82.5 L 65 84.5 L 67 84.5 Q 65.5 87.5 64 84.5 L 62.5 80 Z " /><path fill="rgb(76,161,232)" stroke="rgb(76,161,232)" stroke-width="1" opacity="0.17254901960784313" d="M 105.5 85 L 109 86.5 L 111 91.5 L 109 92.5 L 110 90.5 L 108 90.5 L 109 88.5 L 106 87.5 L 105.5 85 Z " /><path fill="rgb(76,161,232)" stroke="rgb(76,161,232)" stroke-width="1" opacity="0.17254901960784313" d="M 116.5 105 L 119 105.5 L 118 107.5 L 121 108.5 L 123 112.5 L 120 112.5 L 121 110.5 L 119 110.5 L 120 108.5 L 117 107.5 L 116.5 105 Z " /><path fill="rgb(76,161,232)" stroke="rgb(76,161,232)" stroke-width="1" opacity="0.17254901960784313" d="M 121.5 114 L 124 114.5 L 123 116.5 L 126 117.5 L 129 123.5 L 128 125.5 L 131 126.5 L 134 132.5 L 133 134.5 L 136 135.5 L 134.5 138 L 135 136.5 L 134.5 135 L 132 134.5 L 131 132.5 L 132 130.5 L 130 130.5 L 131 128.5 L 129 128.5 L 130 126.5 L 127 125.5 L 126 123.5 L 127 121.5 L 125 121.5 L 126 119.5 L 124 119.5 L 125 117.5 L 122 116.5 L 121.5 114 Z " /><path fill="rgb(76,161,232)" stroke="rgb(76,161,232)" stroke-width="1" opacity="0.17254901960784313" d="M 82.5 116 L 85 116.5 L 84 118.5 L 86 118.5 L 85 120.5 L 87 120.5 L 86 122.5 L 88 122.5 Q 86.5 125.5 85 122.5 L 82.5 116 Z " /><path fill="rgb(76,161,232)" stroke="rgb(76,161,232)" stroke-width="1" opacity="0.17254901960784313" d="M 136.5 138 L 139 141.5 L 138 143.5 L 141 144.5 L 144 150.5 L 141 150.5 L 142 148.5 L 140 148.5 L 141 146.5 L 138 145.5 L 136 141.5 L 137 139.5 L 135 139.5 L 136.5 138 Z " /><path fill="rgb(76,161,232)" stroke="rgb(76,161,232)" stroke-width="1" opacity="0.17254901960784313" d="M 142.5 152 L 146 153.5 L 148 158.5 L 146 159.5 L 147 157.5 L 145 157.5 L 146 155.5 L 143 154.5 L 142.5 152 Z " /><path fill="rgb(76,161,232)" stroke="rgb(76,161,232)" stroke-width="1" opacity="0.17254901960784313" d="M 104.5 156 L 107 156.5 L 106 158.5 L 108 158.5 L 107 160.5 L 109 160.5 Q 107.5 163.5 106 160.5 L 104.5 156 Z " /><path fill="rgb(76,161,232)" stroke="rgb(76,161,232)" stroke-width="1" opacity="0.17254901960784313" d="M 146.5 164 L 149 164.5 L 145.5 170 L 144 169.5 L 145 171.5 L 141.5 177 L 140.5 175 L 142 175.5 L 141 173.5 L 143 173.5 L 142 171.5 L 144.5 168 L 146 168.5 L 145 166.5 L 147 166.5 L 146.5 164 Z " /><path fill="rgb(76,161,232)" stroke="rgb(76,161,232)" stroke-width="1" opacity="0.17254901960784313" d="M 109.5 165 L 112 165.5 L 111 167.5 L 113 167.5 L 112 169.5 L 114 169.5 L 113 171.5 L 115 171.5 Q 113.5 174.5 112 171.5 L 109.5 165 Z " /><path fill="rgb(76,161,232)" stroke="rgb(76,161,232)" stroke-width="1" opacity="0.17254901960784313" d="M 115.5 176 L 118 176.5 L 117 178.5 L 119 178.5 L 118 180.5 L 120 180.5 Q 118.5 183.5 117 180.5 L 115.5 176 Z " /><path fill="rgb(76,161,232)" stroke="rgb(76,161,232)" stroke-width="1" opacity="0.17254901960784313" d="M 139.5 177 L 140 179.5 L 135.5 187 Q 132.5 185.5 135.5 184 L 137 184.5 L 136 182.5 L 138 182.5 L 137 180.5 L 139 180.5 L 138 178.5 L 139.5 177 Z " /><path fill="rgb(76,161,232)" stroke="rgb(76,161,232)" stroke-width="1" opacity="0.17254901960784313" d="M 133.5 187 L 135 189.5 L 132.5 193 L 130 192.5 L 133 191.5 L 132 189.5 L 134 189.5 L 133.5 187 Z " /><path fill="rgb(76,161,232)" stroke="rgb(76,161,232)" stroke-width="1" opacity="0.17254901960784313" d="M 214 241 L 220.5 242 L 222.5 241 L 222.5 242 L 221 242.5 L 223 245.5 L 222 245.5 L 220.5 243 L 220 246.5 L 225.5 248 L 225.5 247 Q 222.5 247.875 224 243.5 L 226 243.5 L 226.5 242 L 229 248.5 L 221.5 249 L 219.5 249 Q 213.417 250.25 214 247.5 L 214 245.5 L 214 241 Z M 216 242 L 216 243 Q 219 242 218 245 L 216 244 L 215 246 L 218 247 L 215 248 L 220 248 L 219 247 L 220 243 L 216 242 Z " /><path fill="rgb(76,161,232)" stroke="rgb(76,161,232)" stroke-width="1" opacity="0.17254901960784313" d="M 236.5 241 L 244.5 242 L 247.5 241 L 247.5 242 L 245 243.5 L 247.5 248 L 249 248.5 L 247.5 249 L 245.5 249 L 236 248.5 L 241 247.5 L 239 246.5 L 240.5 246 L 243 247.5 L 240.5 243 L 238.5 242 L 236.5 241 Z " /></svg>